<?xml version="1.0" standalone="no"?>
<!DOCTYPE svg PUBLIC "-//W3C//DTD SVG 20010904//EN"
 "http://www.w3.org/TR/2001/REC-SVG-20010904/DTD/svg10.dtd">
<svg version="1.0" xmlns="http://www.w3.org/2000/svg"
 width="300.000000pt" height="300.000000pt" viewBox="0 0 300.000000 300.000000"
 preserveAspectRatio="xMidYMid meet">

<g transform="translate(0.000000,300.000000) scale(0.100000,-0.100000)"
fill="#1d4d71" stroke="none">
<path d="M0 1500 l0 -1500 1500 0 1500 0 0 1500 0 1500 -1500 0 -1500 0 0
-1500z m1605 1146 c28 -7 64 -20 81 -29 34 -18 277 -266 306 -312 28 -47 23
-93 -22 -176 -22 -41 -66 -123 -96 -184 -100 -194 -141 -235 -240 -235 -41 0
-51 5 -80 36 -19 19 -34 40 -34 45 0 5 -25 51 -57 102 -207 337 -223 370 -223
452 0 106 67 218 160 269 89 48 124 54 205 32z m-530 -409 c44 -23 64 -48 160
-207 168 -277 189 -347 129 -432 -16 -23 -51 -56 -78 -72 -62 -39 -113 -38
-226 4 -47 17 -131 43 -188 56 -223 53 -255 97 -267 376 -6 131 -5 150 11 178
28 46 107 91 199 114 43 11 231 -1 260 -17z m1309 -22 c130 -54 225 -258 213
-455 -7 -108 -23 -155 -67 -201 -51 -54 -92 -62 -328 -63 l-204 -1 -20 25
c-29 36 -20 119 21 176 41 59 51 102 51 230 0 103 2 115 30 170 35 71 74 110
126 130 45 17 123 12 178 -11z m-1736 -679 c22 -8 66 -32 98 -54 60 -41 203
-103 283 -123 24 -6 57 -23 73 -39 25 -25 28 -35 28 -94 0 -55 -5 -75 -37
-137 -57 -110 -156 -176 -296 -197 -95 -15 -249 54 -322 142 -90 111 -138 287
-103 387 27 81 93 129 179 129 31 0 75 -6 97 -14z m1243 -151 c248 -98 294
-104 417 -53 62 25 92 31 152 32 93 1 130 -17 159 -77 34 -70 28 -126 -24
-233 -52 -108 -98 -158 -238 -262 -391 -291 -767 -444 -1097 -446 -109 -1
-118 0 -169 29 -100 55 -161 152 -161 254 0 68 32 112 122 171 119 78 174 159
222 324 32 109 57 159 104 209 79 82 176 119 293 113 63 -3 100 -13 220 -61z"/>
</g>
</svg>
