<?xml version="1.0" standalone="no"?>
<!DOCTYPE svg PUBLIC "-//W3C//DTD SVG 20010904//EN"
 "http://www.w3.org/TR/2001/REC-SVG-20010904/DTD/svg10.dtd">
<svg version="1.0" xmlns="http://www.w3.org/2000/svg"
 width="826.000000pt" height="245.000000pt" viewBox="0 0 826.000000 245.000000"
 preserveAspectRatio="xMidYMid meet">

<g transform="translate(0.000000,245.000000) scale(0.100000,-0.100000)"
fill="#1d4d71" stroke="none">
<path d="M2775 2430 c-190 -41 -317 -109 -445 -239 -81 -82 -135 -157 -169
-236 -12 -27 -26 -57 -31 -66 -5 -9 -18 -56 -29 -104 -38 -158 -24 -368 34
-510 33 -82 67 -145 93 -173 6 -7 12 -17 12 -22 0 -11 135 -148 180 -182 l35
-27 -339 -1 c-318 0 -338 1 -331 17 4 10 13 41 20 68 7 28 18 64 23 80 5 17
17 55 25 85 35 121 78 267 92 310 7 25 17 61 21 80 3 19 10 41 14 50 4 8 15
40 23 70 9 30 25 86 37 124 11 38 20 77 20 86 0 9 3 20 7 24 5 4 13 29 20 54
6 26 19 72 28 102 9 30 21 73 26 95 6 22 14 47 19 56 5 9 12 34 16 55 4 22 13
53 19 69 7 17 16 47 19 68 l7 37 -272 -2 -272 -3 -12 -40 c-7 -22 -18 -74 -24
-115 -6 -41 -17 -111 -25 -155 -77 -423 -94 -531 -95 -613 -1 -46 -4 -63 -13
-60 -7 3 -14 22 -16 44 -3 35 -14 101 -56 329 -8 39 -16 77 -20 85 -3 8 -10
42 -16 75 -5 33 -16 92 -24 130 -8 39 -22 107 -30 151 -8 45 -20 103 -27 128
l-11 46 -188 0 c-138 0 -190 -3 -197 -12 -6 -7 -15 -42 -21 -78 -18 -98 -31
-168 -46 -240 -8 -36 -21 -101 -30 -145 -9 -44 -21 -102 -27 -130 -5 -27 -15
-77 -20 -110 -5 -33 -13 -73 -19 -90 -5 -16 -12 -65 -16 -108 -6 -78 -24 -117
-24 -55 0 36 -32 266 -49 353 -27 137 -32 165 -46 250 -8 50 -22 126 -30 170
-8 44 -18 101 -21 127 -4 26 -12 52 -19 58 -8 7 -105 9 -276 8 -228 -3 -264
-5 -262 -18 3 -24 24 -103 33 -125 5 -11 13 -38 19 -60 5 -22 15 -60 22 -85 6
-25 15 -52 19 -60 4 -9 11 -31 14 -50 4 -19 13 -53 21 -75 7 -22 21 -67 30
-100 9 -33 21 -73 27 -90 5 -16 14 -46 19 -65 18 -72 45 -165 50 -175 4 -5 10
-27 13 -49 4 -21 11 -46 16 -55 5 -9 13 -34 19 -56 5 -22 15 -60 21 -85 6 -25
15 -52 19 -60 5 -9 12 -31 15 -50 4 -19 11 -44 15 -55 8 -19 35 -114 51 -182
l8 -33 -224 0 -224 0 0 -435 0 -435 4130 0 4130 0 0 435 0 435 -161 2 -161 3
42 27 c23 16 45 28 48 28 15 0 138 138 157 175 11 22 23 42 26 45 7 5 23 70
40 155 26 134 -20 285 -117 380 -59 58 -136 99 -226 119 -120 28 -153 36 -178
47 -98 43 -115 60 -104 103 10 41 45 56 126 56 40 0 93 -7 118 -16 63 -21 151
-65 183 -92 13 -11 16 -8 22 18 4 16 11 30 16 30 5 0 9 7 9 16 0 9 6 28 14 42
8 15 24 52 36 82 11 30 25 64 30 75 37 82 50 115 50 123 0 16 -137 76 -245
108 -133 39 -412 44 -506 9 -137 -52 -212 -98 -277 -171 -57 -64 -56 -63 -109
-179 -26 -57 -26 -305 0 -350 9 -16 17 -34 17 -38 0 -11 18 -32 77 -91 79 -78
166 -116 353 -152 105 -20 161 -93 111 -143 -42 -42 -126 -47 -231 -15 -43 14
-169 73 -180 85 -10 11 -81 51 -84 48 -2 -2 -16 -33 -30 -69 -15 -36 -31 -74
-36 -85 -5 -11 -19 -45 -30 -75 -24 -60 -28 -70 -59 -144 -12 -27 -20 -50 -19
-51 5 -4 141 -71 178 -88 33 -15 9 -16 -345 -16 -351 0 -413 4 -315 24 91 18
237 103 319 185 53 53 101 110 101 117 0 3 13 27 28 52 30 48 62 134 81 214
25 106 10 306 -31 422 -24 69 -81 174 -114 210 -20 22 -41 47 -47 55 -39 49
-203 157 -282 184 -142 48 -232 58 -622 63 l-373 6 0 -767 0 -766 -212 0 -213
1 35 27 c113 87 217 221 274 352 54 125 81 299 64 422 -11 87 -40 201 -64 255
-8 17 -14 36 -14 42 0 6 -4 11 -8 11 -4 0 -13 12 -19 28 -13 28 -34 63 -44 72
-3 3 -18 23 -35 44 -51 69 -168 176 -193 176 -6 0 -11 4 -11 8 0 10 -143 82
-163 82 -7 0 -17 4 -23 9 -15 16 -207 51 -274 51 -63 0 -238 -31 -287 -52 -84
-34 -165 -78 -223 -121 -70 -53 -180 -165 -180 -184 0 -6 -3 -13 -7 -15 -14
-6 -49 -61 -78 -123 -60 -127 -79 -240 -72 -420 4 -106 10 -144 32 -205 14
-41 29 -85 32 -97 3 -12 11 -28 19 -34 8 -6 14 -16 14 -21 0 -36 196 -263 243
-281 9 -3 17 -11 17 -17 0 -7 -124 -10 -375 -10 -206 0 -375 3 -375 8 0 4 15
17 34 30 47 32 175 166 176 184 0 4 6 13 13 20 20 21 74 129 93 183 82 241 65
468 -52 699 -15 31 -32 56 -36 56 -4 0 -8 5 -8 11 0 22 -160 199 -179 199 -5
0 -14 7 -21 15 -21 26 -119 79 -205 113 -156 60 -310 74 -460 42z m203 -217
c32 -15 132 -107 170 -157 28 -35 26 -78 -6 -122 -29 -39 -72 -127 -72 -146 0
-19 -66 -77 -90 -78 -58 -5 -56 -7 -94 80 -9 19 -28 49 -42 65 -38 44 -68 93
-88 149 -15 39 -17 55 -8 85 34 111 139 167 230 124z m2025 -113 c16 -14 -3
-48 -37 -70 -19 -11 -41 -35 -50 -53 -8 -19 -32 -49 -52 -68 -20 -19 -53 -51
-72 -71 -19 -21 -44 -38 -54 -38 -10 0 -18 -7 -18 -15 0 -22 -62 -19 -90 3
-20 17 -22 22 -11 53 6 19 23 47 37 62 22 24 30 27 62 21 20 -4 43 -11 50 -17
9 -7 16 -7 23 0 7 7 -1 17 -25 33 -20 12 -36 24 -36 27 0 2 16 20 35 39 20 19
40 45 45 59 5 14 16 25 24 25 7 0 18 6 24 13 12 14 130 12 145 -3z m-495 -6
c28 -19 27 -39 -3 -89 -14 -22 -30 -49 -36 -60 -6 -11 -28 -32 -48 -46 -37
-26 -38 -29 -43 -97 -5 -71 -28 -121 -56 -122 -10 0 -12 -9 -7 -32 4 -18 11
-35 15 -38 18 -12 21 -59 6 -89 -15 -28 -15 -31 -1 -31 30 0 39 -43 21 -97
-35 -105 -67 -153 -103 -153 -13 0 -35 -7 -49 -16 -23 -16 -27 -15 -75 7 -40
19 -57 36 -84 82 -32 54 -34 61 -25 102 6 25 15 77 20 115 10 73 32 120 56
120 8 0 14 6 14 13 0 6 18 29 40 49 22 21 42 49 46 63 3 14 10 25 15 25 5 0 9
6 9 13 0 8 9 22 20 32 11 10 20 22 20 27 0 5 11 25 24 46 12 20 26 46 30 58 3
11 26 42 51 69 25 26 45 52 45 56 0 15 74 10 98 -7z m-1803 -127 c22 -24 47
-56 55 -73 8 -16 17 -31 20 -34 3 -3 15 -27 28 -55 13 -27 27 -58 33 -67 26
-50 -11 -120 -79 -148 -18 -8 -39 -3 -94 20 -38 17 -80 30 -93 30 -49 0 -88
14 -119 44 -32 30 -33 34 -39 136 -5 85 -4 109 9 128 25 38 90 62 169 62 69 0
69 0 110 -43z m2518 21 c12 -6 28 -17 35 -25 7 -7 19 -13 27 -13 15 0 28 -27
19 -41 -3 -5 -20 -15 -37 -23 -18 -7 -62 -36 -99 -64 -37 -29 -76 -52 -87 -52
-10 0 -21 -7 -25 -15 -3 -8 -15 -15 -26 -15 -11 0 -20 -4 -20 -10 0 -19 -56
-60 -103 -76 -27 -9 -49 -14 -51 -13 -9 14 -23 82 -19 97 5 21 88 78 127 88
19 5 24 10 16 19 -11 13 13 39 65 70 17 10 42 30 57 43 14 13 41 28 60 32 18
4 34 8 36 9 2 1 13 -4 25 -11z m-1870 -27 c48 -21 73 -55 100 -138 20 -60 22
-143 5 -176 -6 -12 -14 -29 -18 -37 -16 -35 -71 -49 -190 -50 -78 0 -120 4
-128 12 -20 20 -14 71 13 110 20 30 25 49 25 100 0 69 15 138 30 138 6 0 10 6
10 13 0 18 50 46 82 47 14 0 46 -9 71 -19z m2960 -63 c106 -38 167 -139 167
-277 0 -123 -49 -215 -139 -261 -50 -25 -202 -52 -218 -38 -10 8 -13 81 -13
303 0 160 3 295 7 299 12 12 135 -4 196 -26z m-1719 -179 c42 -16 58 -28 62
-45 5 -20 13 -24 46 -24 29 0 45 -6 59 -22 10 -13 18 -27 19 -31 0 -5 7 -15
15 -23 16 -16 21 -54 7 -54 -8 0 -32 -43 -32 -55 0 -3 14 -5 30 -5 33 0 35 -4
44 -63 4 -29 0 -41 -16 -57 -14 -13 -19 -26 -15 -41 3 -13 3 -43 0 -67 -5 -38
-10 -46 -40 -58 -28 -12 -33 -19 -33 -47 0 -33 -2 -34 -97 -72 -54 -21 -102
-42 -108 -47 -5 -4 -44 -8 -88 -8 -73 0 -82 2 -131 35 -81 53 -88 64 -73 110
7 24 22 44 39 54 15 9 28 22 28 29 0 8 9 12 23 10 12 -2 30 5 39 14 10 10 30
21 45 24 16 4 31 12 35 18 9 13 176 10 213 -4 19 -7 25 -6 25 4 0 19 -19 77
-37 109 -8 15 -12 35 -9 43 3 9 -5 25 -19 38 -14 13 -25 28 -25 35 0 6 -7 11
-15 11 -8 0 -15 6 -15 14 0 16 -68 46 -104 46 -12 0 -31 8 -40 19 -16 17 -16
21 1 55 10 19 25 36 34 36 9 0 24 9 34 20 23 25 30 25 99 -1z m695 -48 c18
-11 16 -93 -1 -121 -18 -29 -91 -60 -139 -60 -24 0 -57 -7 -73 -15 -39 -21
-46 -19 -46 11 0 14 -7 33 -16 42 -15 15 -14 18 20 47 20 16 63 41 96 53 33
13 60 27 60 32 0 5 15 11 33 13 17 2 37 4 42 5 6 1 16 -2 24 -7z m-4164 -53
c3 -7 11 -51 20 -98 8 -47 24 -128 35 -180 12 -52 27 -124 35 -160 8 -36 21
-99 30 -140 29 -130 34 -155 35 -162 0 -5 -75 -8 -166 -8 l-166 0 7 28 c4 15
11 45 15 67 4 22 18 83 30 135 12 52 26 117 30 143 5 26 12 58 16 70 14 43 35
153 46 235 10 75 22 101 33 70z m1413 -52 c37 -24 83 -47 102 -51 19 -3 50
-13 68 -21 28 -13 32 -20 32 -55 0 -48 -19 -96 -51 -131 -32 -33 -59 -47 -118
-58 -84 -16 -155 18 -208 99 -61 93 -67 172 -17 231 22 26 32 30 76 30 42 0
60 -7 116 -44z m489 -12 c35 -6 105 -32 144 -54 40 -22 105 -22 152 -1 45 21
112 28 132 13 21 -14 45 -62 45 -87 0 -34 -34 -104 -68 -140 -34 -37 -116
-105 -127 -105 -5 0 -16 -6 -24 -14 -26 -23 -242 -131 -309 -154 -34 -12 -78
-22 -98 -22 -20 0 -54 -5 -75 -12 -104 -31 -227 87 -190 184 5 14 36 45 68 69
45 32 64 54 77 89 10 25 22 54 26 65 5 11 14 36 20 55 6 19 16 42 23 50 29 36
125 83 154 75 6 -2 29 -7 50 -11z m1960 -51 c27 -24 18 -43 -21 -43 -44 0 -61
18 -39 42 20 23 35 23 60 1z m178 -203 c4 -11 1 -35 -5 -54 -9 -30 -17 -35
-69 -50 -99 -28 -234 -16 -177 16 19 11 22 54 4 61 -32 11 16 29 98 36 143 13
142 13 149 -9z m-4681 -686 c12 -5 16 -21 16 -75 l0 -69 65 0 65 0 0 70 c0 65
2 70 24 76 13 3 37 4 52 2 l29 -3 3 -182 2 -183 -55 0 -55 0 0 75 0 75 -65 0
-65 0 0 -75 0 -76 -57 3 -58 3 -3 169 c-2 116 1 173 9 182 12 14 65 19 93 8z
m651 -16 c2 -13 6 -74 7 -136 3 -124 7 -132 64 -132 51 0 59 19 63 154 2 76 7
124 15 128 6 4 28 8 49 8 l37 0 0 -153 0 -153 -29 -31 c-34 -38 -76 -47 -171
-41 -71 5 -87 14 -122 67 -15 22 -18 49 -18 163 0 149 -1 146 62 147 31 1 38
-3 43 -21z m661 14 c7 -4 27 -52 45 -106 37 -113 34 -115 81 34 l23 75 47 3
c56 4 60 -1 77 -108 7 -41 19 -111 27 -155 8 -44 14 -86 14 -92 0 -15 -96 -18
-105 -4 -3 6 -8 46 -12 90 -7 92 -26 110 -37 36 -4 -24 -11 -47 -15 -50 -5 -2
-11 -23 -15 -45 -6 -41 -7 -41 -47 -38 -46 3 -46 3 -88 138 -15 50 -20 58 -20
35 -1 -16 -5 -46 -10 -65 -5 -19 -12 -52 -16 -73 -6 -37 -6 -37 -55 -37 l-48
0 5 42 c2 24 9 66 14 93 5 28 14 83 20 124 13 99 21 111 67 111 20 0 42 -4 48
-8z m804 -12 c25 -50 81 -201 102 -270 5 -19 14 -39 19 -44 23 -25 8 -36 -46
-36 -54 0 -56 1 -61 30 l-6 30 -74 0 -74 0 -6 -30 c-6 -29 -8 -30 -65 -30
l-58 0 26 68 c14 37 30 81 35 97 6 17 16 44 24 62 8 17 14 38 14 46 0 9 5 19
10 22 6 3 10 15 10 25 0 36 28 51 88 48 37 -2 57 -8 62 -18z m512 -22 c18 -24
36 -47 41 -53 4 -5 21 -26 37 -45 16 -19 30 -38 30 -41 0 -3 9 -16 20 -29 l20
-23 0 116 0 117 34 0 c68 0 66 6 66 -191 l0 -179 -53 0 c-56 0 -67 7 -108 70
-9 14 -33 43 -53 65 -20 22 -39 48 -42 58 -13 41 -20 10 -20 -85 l1 -103 -52
-3 -53 -3 0 180 c0 196 -2 189 62 190 31 1 41 -5 70 -41z m762 36 c11 -4 16
-19 16 -45 l0 -39 -65 0 -65 0 0 -30 0 -30 61 0 60 0 -3 -42 -3 -43 -57 -3
c-54 -3 -58 -5 -58 -27 0 -24 3 -25 65 -25 l65 0 0 -40 0 -40 -120 0 -120 0 0
169 c0 93 3 176 6 185 5 13 24 16 104 16 54 0 105 -3 114 -6z m886 -9 c17 -9
30 -17 30 -19 0 -14 -24 -66 -30 -66 -5 0 -21 5 -36 11 -38 14 -74 4 -74 -21
0 -13 7 -20 19 -20 11 0 22 -4 25 -9 3 -5 21 -12 40 -15 49 -9 76 -47 76 -105
0 -40 -5 -52 -34 -80 -28 -27 -45 -35 -85 -39 -63 -6 -109 3 -141 28 l-25 19
19 35 c22 42 25 42 68 16 38 -23 71 -26 87 -6 23 28 -6 54 -82 72 -34 8 -77
58 -77 89 0 29 30 95 43 95 4 0 15 7 23 15 20 20 116 20 154 0z m606 -5 c83
-38 127 -131 104 -221 -21 -82 -81 -129 -174 -136 -97 -8 -160 22 -209 99 -39
63 -26 159 31 216 59 59 169 78 248 42z m644 7 c19 -9 26 -22 28 -51 5 -61 -3
-71 -34 -47 -35 28 -82 26 -119 -4 -26 -21 -30 -31 -30 -74 0 -34 6 -55 19
-70 27 -30 81 -37 122 -17 41 19 47 11 42 -50 -3 -34 -7 -39 -38 -47 -62 -16
-144 -4 -185 27 -20 16 -39 36 -42 45 -4 9 -11 19 -17 23 -5 3 -12 34 -14 67
-6 86 29 151 102 192 37 21 130 24 166 6z m408 -174 l2 -183 -55 0 -55 0 0
178 c0 98 3 182 7 186 4 4 28 6 53 4 l45 -3 3 -182z m530 140 l3 -43 -65 0
-66 0 0 -30 0 -30 65 0 65 0 0 -39 c0 -45 -9 -51 -82 -51 -46 0 -49 -2 -46
-22 3 -21 9 -23 66 -26 l62 -3 0 -39 0 -40 -120 0 -120 0 0 179 c0 134 3 181
13 185 6 2 59 4 117 3 l105 -2 3 -42z m532 -2 l0 -50 -42 -3 -43 -3 -3 -132
-3 -133 -49 0 -50 0 0 134 0 135 -42 3 c-42 3 -43 4 -46 42 -2 24 2 42 10 47
7 5 70 9 141 9 l127 0 0 -49z m323 34 c8 -8 23 -33 34 -55 21 -45 40 -51 49
-15 3 14 10 25 15 25 5 0 9 6 9 14 0 29 30 46 81 46 42 0 49 -3 49 -19 0 -11
-6 -26 -12 -33 -24 -25 -58 -77 -58 -88 0 -5 -3 -10 -7 -10 -5 0 -16 -14 -25
-31 -13 -22 -18 -53 -18 -110 l0 -79 -50 0 -50 0 0 79 c0 58 -4 82 -15 91 -8
7 -15 18 -15 25 0 8 -3 15 -7 17 -5 2 -21 23 -38 48 -16 25 -33 47 -37 50 -3
3 -10 18 -13 33 -7 27 -7 27 43 27 31 0 56 -6 65 -15z"/>
<path d="M2515 480 c-4 -22 -11 -42 -16 -46 -5 -3 -9 -14 -9 -25 0 -16 7 -19
46 -19 33 0 44 4 40 13 -2 6 -12 36 -21 65 -9 28 -20 52 -25 52 -4 0 -11 -18
-15 -40z"/>
<path d="M5220 513 c-36 -24 -40 -33 -40 -86 0 -38 5 -53 26 -74 22 -22 32
-25 74 -21 62 6 89 35 90 95 0 80 -86 130 -150 86z"/>
</g>
</svg>
